<?xml version="1.0" encoding="UTF-8" standalone="no"?>
<svg
   version="1.1"
   viewBox="0 0 100 100"
   id="svg10"
   width="100"
   height="100"
   sodipodi:docname="diagram.svg"
   inkscape:version="1.1 (c68e22c387, 2021-05-23)"
   xmlns:inkscape="http://www.inkscape.org/namespaces/inkscape"
   xmlns:sodipodi="http://sodipodi.sourceforge.net/DTD/sodipodi-0.dtd"
   xmlns="http://www.w3.org/2000/svg"
   xmlns:svg="http://www.w3.org/2000/svg">
  <defs
     id="defs2073" />
  <sodipodi:namedview
     id="namedview2071"
     pagecolor="#ffffff"
     bordercolor="#666666"
     borderopacity="1.0"
     inkscape:pageshadow="2"
     inkscape:pageopacity="0.0"
     inkscape:pagecheckerboard="0"
     showgrid="true"
     inkscape:zoom="8.22"
     inkscape:cx="55.7786"
     inkscape:cy="47.0803"
     inkscape:window-width="1920"
     inkscape:window-height="1002"
     inkscape:window-x="-8"
     inkscape:window-y="-8"
     inkscape:window-maximized="1"
     inkscape:current-layer="svg10">
    <inkscape:grid
       type="xygrid"
       id="grid3051" />
  </sodipodi:namedview>
  <path
     fill="currentColor"
     stroke="currentColor"
     d="M14,4v92h72V29.2l-0.6-0.6l-24-24L60.8,4L14,4z M18,8h40v24h24v60H18L18,8z M62,10.9L79.1,28H62V10.9z"
     id="path8" />
  <path
     fill="currentColor"
     d="M 72.946,68.7522 H 65.398 L 57.4361,55.1533 c 1.8152,-0.3821 3.121,-1.9744 3.0893,-3.8218 V 41.1086 c 0,-2.1656 -1.7199,-3.9172 -3.8854,-3.9172 H 56.608 43.3272 c -2.1655,0 -3.9171,1.7197 -3.9171,3.8854 v 0.032 10.2229 c 0,1.8474 1.274,3.4397 3.0892,3.8218 l -7.9621,13.599 h -7.5151 c -2.1656,0 -3.9172,1.7196 -3.9172,3.8855 v 0.03 10.2233 c 0,2.1659 1.7198,3.9173 3.8854,3.9173 h 0.032 13.2806 c 2.1656,0 3.9172,-1.7196 3.9172,-3.8856 v -0.03 -10.2233 c 0,-2.166 -1.7198,-3.9173 -3.8855,-3.9173 h -0.032 -1.2742 l 7.8983,-13.5031 h 6.1463 l 7.9289,13.5029 h -1.3054 c -2.1661,0 -3.9177,1.7196 -3.9177,3.8855 v 0.03 10.2233 c 0,2.1659 1.7197,3.9173 3.8853,3.9173 h 0.033 13.2803 c 2.1663,0 3.9177,-1.7196 3.9177,-3.8856 v -0.03 -10.2233 c 0,-2.166 -1.7197,-3.9173 -3.886,-3.9173 -0.032,0 -0.032,0 -0.063,0 z"
     id="path6"
     style="display:inline" />
</svg>
