<?xml version="1.0" encoding="utf-8"?>
<svg version="1.1" xmlns="http://www.w3.org/2000/svg" viewBox="0 0 225 225">
<rect fill="#f08705" x="0" y="0" height="225" width="225" rx="10" />
<path fill="#df6c0c" d="M225,215.4c0,5.3-4.3,9.6-9.5,9.6l0,0H77.1l-44.8-45.5L60.2,134l82.7-102.7l82.1,84.5V215.4z"/>
<path fill="#ffffff" d="M184.6,125.8h-23.7l-25-42.7c5.7-1.2,9.8-6.2,9.7-12V39c0-6.8-5.4-12.3-12.2-12.3h-0.1H91.6
	c-6.8,0-12.3,5.4-12.3,12.2V39v32.1c0,5.8,4,10.8,9.7,12l-25,42.7H40.4c-6.8,0-12.3,5.4-12.3,12.2v0.1v32.1
	c0,6.8,5.4,12.3,12.2,12.3h0.1h41.7c6.8,0,12.3-5.4,12.3-12.2v-0.1v-32.1c0-6.8-5.4-12.3-12.2-12.3h-0.1h-4l24.8-42.4h19.3
	l24.9,42.4H143c-6.8,0-12.3,5.4-12.3,12.2v0.1v32.1c0,6.8,5.4,12.3,12.2,12.3h0.1h41.7c6.8,0,12.3-5.4,12.3-12.2v-0.1v-32.1
	c0-6.8-5.4-12.3-12.2-12.3C184.7,125.8,184.7,125.8,184.6,125.8z"/>
</svg>